<svg xmlns="http://www.w3.org/2000/svg" width="720" height="300" viewBox="0 0 720 300" role="img" aria-label="Cognitive agent simulation inside a vehicle cabin">
  <defs>
    <radialGradient id="cabinGlow" cx="50%" cy="55%" r="55%">
      <stop offset="0%" stop-color="#C9A227" stop-opacity="0.22"/>
      <stop offset="100%" stop-color="#C9A227" stop-opacity="0"/>
    </radialGradient>
  </defs>
  <rect width="720" height="300" fill="#0B0A07"/>
  <ellipse cx="360" cy="160" rx="300" ry="130" fill="url(#cabinGlow)"/>

  <g fill="#FAF6EE" opacity="0.28">
    <circle cx="80" cy="45" r="1.3"/><circle cx="180" cy="70" r="1"/><circle cx="300" cy="32" r="1.5"/>
    <circle cx="500" cy="40" r="1.2"/><circle cx="620" cy="75" r="1.4"/><circle cx="670" cy="120" r="1"/>
  </g>

  <g fill="none" stroke="#FAF6EE" stroke-width="2" stroke-opacity="0.9">
    <path d="M70,210 L70,150 C70,96 118,70 205,66 L515,66 C602,70 650,96 650,150 L650,210 Z"/>
    <path d="M78,210 L78,152 C78,104 122,82 208,78 L512,78 C598,82 642,104 642,152 L642,210 Z" stroke-opacity="0.28"/>
  </g>
  <line x1="70" y1="210" x2="650" y2="210" stroke="#FAF6EE" stroke-width="2" stroke-opacity="0.9"/>

  <rect x="316" y="196" width="88" height="14" fill="#FAF6EE" opacity="0.7"/>
  <circle cx="360" cy="126" r="22" fill="#FAF6EE"/>
  <path d="M328,205 C328,178 342,164 360,164 C378,164 392,178 392,205 Z" fill="#FAF6EE"/>

  <g stroke="#C9A227" stroke-opacity="0.6" stroke-width="1.3">
    <line x1="348" y1="110" x2="286" y2="80"/>
    <line x1="374" y1="110" x2="446" y2="82"/>
    <line x1="382" y1="126" x2="470" y2="156"/>
    <line x1="340" y1="140" x2="268" y2="172"/>
  </g>

  <circle cx="360" cy="126" r="46" fill="none" stroke="#C9A227" stroke-width="1.2" stroke-dasharray="3 7" stroke-opacity="0.6"/>

  <g fill="#C9A227">
    <circle cx="286" cy="80" r="4.5"/>
    <circle cx="446" cy="82" r="4.5"/>
    <circle cx="470" cy="156" r="4.5"/>
    <circle cx="268" cy="172" r="4.5"/>
  </g>

  <g font-family="Arial, Helvetica, sans-serif" font-size="8.5" letter-spacing="1.6" fill="#C9A227">
    <text x="270" y="74" text-anchor="middle">PERCEPTION</text>
    <text x="446" y="72" text-anchor="middle">ATTENTION</text>
    <text x="482" y="168" text-anchor="start">TOUCH</text>
  </g>

  <g stroke="#FAF6EE" stroke-opacity="0.35" stroke-width="1">
    <line x1="96" y1="248" x2="230" y2="248"/>
    <line x1="96" y1="248" x2="146" y2="210"/>
    <line x1="96" y1="248" x2="76" y2="214"/>
    <text x="240" y="252" font-family="Arial, Helvetica, sans-serif" font-size="8.5" letter-spacing="1.6" fill="#C9A227">MULTIDIMENSIONAL</text>
  </g>

  <text x="360" y="278" text-anchor="middle" font-family="Arial, Helvetica, sans-serif" font-size="9.5" letter-spacing="2.5" fill="#C9A227">COGNITIVE AGENT IN THE CABIN</text>
</svg>